# xmcd CD database file
#
# Track frame offsets:
#	150
#	23627
#	42161
#	55893
#	69104
#	85864
#	100205
#	118752
#	131669
#	145915
#	162602
#	168842
#	195944
#
# Disc length: 2772 seconds
#
# Revision: 0
# Processed by: cddbd v1.5.2PL0 Copyright (c) Steve Scherf et al.
# Submitted via: CDex 1.70beta2
#
DISCID=a70ad20d
DTITLE=Tommy Guerrero - Lifeboats And Follies
DYEAR=2009
DGENRE=Jazz
TTITLE0=Yerba Buena Bump
TTITLE1=Cut The Reins
TTITLE2=March Of The Masses
TTITLE3=The Same Confusion And Hope
TTITLE4=Bullfights On Broadway
TTITLE5=Anywhere Everywhere
TTITLE6=The Last Maverick
TTITLE7=Puesta Del Sol
TTITLE8=On The West
TTITLE9=The Lonely And The Only
TTITLE10=Cello And Goodbye
TTITLE11=Nomadic Static
TTITLE12=Mission Badlands
EXTD=YEAR: 2009
EXTT0=
EXTT1=
EXTT2=
EXTT3=
EXTT4=
EXTT5=
EXTT6=
EXTT7=
EXTT8=
EXTT9=
EXTT10=
EXTT11=
EXTT12=
PLAYORDER=
